<svg width="100" height="100" viewBox="0 0 100 100" fill="none" xmlns="http://www.w3.org/2000/svg">
<path fill-rule="evenodd" clip-rule="evenodd" d="M49.9998 97.9187C23.554 97.9187 2.08105 76.4458 2.08105 49.9999C2.08105 23.5541 23.554 2.08116 49.9998 2.08116C76.4457 2.08116 97.9186 23.5541 97.9186 49.9999C97.9186 76.4458 76.4457 97.9187 49.9998 97.9187ZM49.9998 93.752C74.1477 93.752 93.7519 74.1479 93.7519 49.9999C93.7519 25.852 74.1477 6.24783 49.9998 6.24783C25.8519 6.24783 6.24772 25.852 6.24772 49.9999C6.24772 74.1479 25.8519 93.752 49.9998 93.752Z" fill="white"/>
<path fill-rule="evenodd" clip-rule="evenodd" d="M70.1332 44.7998C71.8728 45.9582 72.9165 47.9103 72.9165 49.9998C72.9165 52.0894 71.8728 54.0415 70.1332 55.1999L45.1332 71.8665C43.2165 73.1457 40.7499 73.2644 38.7165 72.1769C36.6853 71.0894 35.4165 68.9707 35.4165 66.6665V33.3332C35.4165 31.029 36.6853 28.9103 38.7165 27.8228C40.7499 26.7353 43.2165 26.854 45.1332 28.1332L70.1332 44.7998ZM67.8227 48.2665L42.8227 31.5998C42.1832 31.1728 41.3603 31.1332 40.6832 31.4957C40.0061 31.8582 39.5832 32.5644 39.5832 33.3332V66.6665C39.5832 67.4353 40.0061 68.1415 40.6832 68.504C41.3603 68.8665 42.1832 68.8269 42.8227 68.3998L67.8227 51.7332C68.4019 51.3478 68.7498 50.6957 68.7498 49.9998C68.7498 49.304 68.4019 48.6519 67.8227 48.2665Z" fill="white"/>
</svg>
